<?xml version="1.0" encoding="UTF-8" standalone="no"?>
<!-- Created with Inkscape (http://www.inkscape.org/) -->

<svg
   width="100mm"
   height="50mm"
   viewBox="0 0 100 50"
   version="1.1"
   id="svg5"
   xml:space="preserve"
   inkscape:version="1.2.2 (b0a8486541, 2022-12-01)"
   sodipodi:docname="logo.svg"
   xmlns:inkscape="http://www.inkscape.org/namespaces/inkscape"
   xmlns:sodipodi="http://sodipodi.sourceforge.net/DTD/sodipodi-0.dtd"
   xmlns="http://www.w3.org/2000/svg"
   xmlns:svg="http://www.w3.org/2000/svg"><sodipodi:namedview
     id="namedview7"
     pagecolor="#ffffff"
     bordercolor="#666666"
     borderopacity="1.0"
     inkscape:showpageshadow="2"
     inkscape:pageopacity="0.0"
     inkscape:pagecheckerboard="0"
     inkscape:deskcolor="#d1d1d1"
     inkscape:document-units="mm"
     showgrid="false"
     inkscape:zoom="2.8284271"
     inkscape:cx="187.91363"
     inkscape:cy="83.4386"
     inkscape:window-width="1920"
     inkscape:window-height="1019"
     inkscape:window-x="0"
     inkscape:window-y="0"
     inkscape:window-maximized="1"
     inkscape:current-layer="layer1" /><defs
     id="defs2" /><g
     inkscape:label="Layer 1"
     inkscape:groupmode="layer"
     id="layer1"><path
       style="fill:#404040;stroke-width:0.264583"
       d="m 14.884614,41.35262 c -0.09701,-0.09701 -0.176389,-3.371232 -0.176389,-7.276041 v -7.099652 h 2.116666 2.116667 v 7.276041 7.276041 H 17.00128 c -1.067152,0 -2.019653,-0.07937 -2.116666,-0.176389 z m 4.586111,-0.851245 v -1.067631 l 2.182812,-0.07685 2.182813,-0.07685 0.07237,-4.893792 c 0.08474,-5.73063 0.166997,-5.557249 -2.636478,-5.557249 h -1.801517 v -0.926034 -0.926042 h 3.427134 c 3.68697,0 4.545062,0.21104 5.010357,1.232251 0.18535,0.406799 0.293759,2.685172 0.293759,6.173777 0,5.46156 -0.0078,5.538107 -0.637909,6.271404 -0.63507,0.739055 -0.654497,0.742742 -4.365625,0.828503 l -3.727716,0.08614 z m 21.701049,0.687792 c -1.239825,-0.62732 -1.341301,-1.211726 -1.265886,-7.290322 l 0.07005,-5.64579 0.742357,-0.638063 c 0.671219,-0.576919 0.981816,-0.638064 3.241146,-0.638064 h 2.498789 v 0.926042 c 0,0.838543 -0.07022,0.926041 -0.743181,0.926041 -1.610466,0 -1.657855,0.166869 -1.578144,5.557249 l 0.07237,4.893792 1.124479,0.08136 c 1.119013,0.08096 1.12448,0.08643 1.12448,1.124479 v 1.04312 l -2.315105,-0.0039 c -1.324028,-0.0022 -2.596036,-0.146045 -2.971347,-0.335943 z m 5.815618,-0.703277 c 0,-1.038049 0.0055,-1.043516 1.124479,-1.124479 l 1.12448,-0.08136 0.07237,-4.893792 c 0.07971,-5.39038 0.03232,-5.557249 -1.578145,-5.557249 -0.672959,0 -0.74318,-0.0875 -0.74318,-0.926041 v -0.926042 h 2.498789 c 2.259314,0 2.56993,0.06115 3.241146,0.638052 l 0.742357,0.638051 0.08087,5.564326 c 0.109456,7.531379 0.0082,7.711653 -4.331425,7.711653 h -2.231741 z m 9.379813,0.708047 c -0.07072,-0.184291 -0.09675,-3.428744 -0.05784,-7.209895 l 0.07074,-6.874822 2.050521,-0.07728 2.050521,-0.07728 v 7.287171 7.28717 h -1.992678 c -1.363848,0 -2.033257,-0.105739 -2.12126,-0.335073 z m 4.643104,-0.72326 v -1.058333 h 2.06375 c 1.252361,0 2.188578,-0.124829 2.38125,-0.3175 0.222372,-0.222373 0.3175,-1.683254 0.3175,-4.875892 0,-5.502466 0.05839,-5.389941 -2.797024,-5.389941 h -1.965476 v -0.926042 -0.926042 h 3.716192 c 2.844114,0 4.274864,-0.16364 4.609767,0.275083 l 0.257145,0.336861 0.139747,6.585925 c 0.08952,4.218616 -0.100179,6.018523 -0.330729,6.318808 -0.665076,0.866236 -1.471401,1.035405 -4.935131,1.035405 h -3.456991 z m 11.641667,-6.217709 v -7.276041 h 2.116667 2.116667 v 7.276041 7.276041 h -2.116667 -2.116667 z m 4.7625,6.224973 v -1.065598 l 3.50573,0.0041 c 1.928151,0.0022 2.642483,-0.0026 3.045543,0.06129 0.434024,0.06884 0.661925,0.117847 0.705161,0.355686 l -0.0062,1.621436 -3.479891,0.01533 -3.770313,0.07341 z m -45.482338,-13.426905 4.174784,-0.05888 -0.0651,14.560278 -4.117156,-0.04107 z m 45.482338,7.210077 v -0.934186 h 3.324056 3.324056 l -0.08291,0.859896 -0.08291,0.859895 -3.241146,0.07429 -3.241146,0.07429 z m 0,-6.358144 v -0.940975 l 3.638021,0.07361 3.638021,0.07361 0.02302,1.53032 c 0,0 -0.04554,0.175881 -0.175001,0.179187 -1.057411,0.027 -3.440002,-0.0024 -3.440002,-0.0024 l -3.684057,0.02757 z"
       id="path269"
       sodipodi:nodetypes="sscccccssccccsscccsssssccsscsscssscssccsssscssscsscsscssscccccsssccsssscccsscsssccccccccccccccssccccccccccccccccccccccscccc" /><rect
       style="fill:#8468ca;stroke-width:0.226092;stroke-linecap:square;stroke-linejoin:bevel"
       id="rect473"
       width="4.1681738"
       height="1.0650982"
       x="31.930635"
       y="28.508104" /><rect
       style="fill:#ff6600;stroke-width:0.225897;stroke-linecap:square;stroke-linejoin:bevel"
       id="rect473-3"
       width="4.1609998"
       height="1.0650982"
       x="31.93095"
       y="30.295313" /><rect
       style="fill:#99cc33;stroke-width:0.22579;stroke-linecap:square;stroke-linejoin:bevel"
       id="rect499"
       width="4.1570683"
       height="1.0650982"
       x="31.929842"
       y="32.020088" /><rect
       style="fill:#404040;stroke-width:0.237757;stroke-linecap:square;stroke-linejoin:bevel"
       id="rect669"
       width="1.4"
       height="16"
       x="43.254803"
       y="5.4833126" /><rect
       style="fill:#404040;stroke-width:0.168119;stroke-linecap:square;stroke-linejoin:bevel"
       id="rect723"
       width="1.4"
       height="8"
       x="12.983313"
       y="-43.254803"
       transform="rotate(90)" /><rect
       style="fill:#404040;stroke-width:0.175762;stroke-linecap:square;stroke-linejoin:bevel"
       id="rect725"
       width="1.4907191"
       height="8.2117472"
       x="12.983313"
       y="-62.466583"
       transform="rotate(90)" /><path
       style="fill:#ffcc00;stroke:#404040;stroke-width:0.9;stroke-linecap:round;stroke-linejoin:round;stroke-dasharray:none;stroke-opacity:1"
       d="m 45.254834,13.483313 9,-7.5000002 V 20.983313 Z"
       id="path727"
       sodipodi:nodetypes="cccc" /></g></svg>
